<svg width="0" height="0" class="hidden">
    <symbol fill="black" xmlns="http://www.w3.org/2000/svg" viewBox="0 0 25 24" id="cart">
        <g clip-path="url(#clip0_99_6)">
            <path
                d="M8.91264 16.9924H20.6349C21.0262 16.9924 21.3678 16.671 21.3678 16.239C21.3678 15.807 21.0262 15.4856 20.6349 15.4856H9.08322C8.51064 15.4856 8.15922 15.0836 8.06879 14.4712L7.90807 13.4164H20.6546C22.1212 13.4164 22.8746 12.5122 23.0855 11.076L23.8891 5.76216C23.9104 5.63598 23.9239 5.50859 23.9294 5.38073C23.9294 4.89859 23.5676 4.56688 23.0152 4.56688H6.6125L6.42136 3.29145C6.32107 2.51788 6.03993 2.12573 5.01564 2.12573H1.48936C1.08779 2.12573 0.746216 2.47802 0.746216 2.88002C0.746216 3.29145 1.08779 3.6433 1.48979 3.6433H4.8845L6.49164 14.6722C6.70293 16.0984 7.45593 16.9924 8.91264 16.9924ZM22.2215 6.08359L21.5092 10.8952C21.4286 11.5179 21.0974 11.8997 20.5046 11.8997L7.68779 11.9096L6.83364 6.08359H22.2215ZM9.70636 21.8743C9.92055 21.8761 10.133 21.8352 10.3312 21.754C10.5294 21.6729 10.7095 21.5531 10.861 21.4016C11.0124 21.2502 11.1322 21.0701 11.2134 20.8718C11.2945 20.6736 11.3354 20.4612 11.3336 20.247C11.3346 20.0331 11.2931 19.8211 11.2116 19.6232C11.1302 19.4254 11.0103 19.2456 10.859 19.0943C10.7078 18.943 10.528 18.8232 10.3302 18.7418C10.1323 18.6603 9.92031 18.6188 9.70636 18.6197C8.79265 18.6197 8.06922 19.3432 8.06922 20.247C8.06922 21.1612 8.79265 21.8743 9.70636 21.8743ZM19.0981 21.8743C20.0122 21.8743 20.7352 21.1612 20.7352 20.247C20.7352 19.3427 20.0122 18.6197 19.0981 18.6197C18.1942 18.6197 17.4609 19.3432 17.4609 20.247C17.4609 21.1612 18.1942 21.8743 19.0981 21.8743Z"
                fill="black"></path>
        </g>
        <defs>
            <clipPath id="clip0_99_6">
                <rect width="24" height="24" fill="white" transform="translate(0.337769)"></rect>
            </clipPath>
        </defs>
    </symbol>

    <symbol fill="none" xmlns="http://www.w3.org/2000/svg" viewBox="0 0 25 24" id="heart">
        <path
            d="M17.0253 3C15.0893 3 13.3943 3.8325 12.3378 5.23969C11.2812 3.8325 9.58621 3 7.65027 3C6.10923 3.00174 4.63181 3.61468 3.54213 4.70436C2.45245 5.79404 1.83951 7.27146 1.83777 8.8125C1.83777 15.375 11.5681 20.6869 11.9825 20.9062C12.0917 20.965 12.2138 20.9958 12.3378 20.9958C12.4618 20.9958 12.5839 20.965 12.6931 20.9062C13.1075 20.6869 22.8378 15.375 22.8378 8.8125C22.836 7.27146 22.2231 5.79404 21.1334 4.70436C20.0437 3.61468 18.5663 3.00174 17.0253 3ZM12.3378 19.3875C10.6259 18.39 3.33777 13.8459 3.33777 8.8125C3.33926 7.66921 3.79409 6.57317 4.60251 5.76475C5.41094 4.95632 6.50698 4.50149 7.65027 4.5C9.47371 4.5 11.0046 5.47125 11.644 7.03125C11.7005 7.16881 11.7966 7.28646 11.9202 7.36926C12.0437 7.45207 12.1891 7.49627 12.3378 7.49627C12.4865 7.49627 12.6318 7.45207 12.7554 7.36926C12.8789 7.28646 12.975 7.16881 13.0315 7.03125C13.6709 5.46844 15.2018 4.5 17.0253 4.5C18.1686 4.50149 19.2646 4.95632 20.073 5.76475C20.8815 6.57317 21.3363 7.66921 21.3378 8.8125C21.3378 13.8384 14.0478 18.3891 12.3378 19.3875Z"
            fill="black"></path>
    </symbol>

    <symbol fill="none" xmlns="http://www.w3.org/2000/svg" viewBox="0 0 25 24" id="search">
        <path
            d="M19.9378 21L13.6378 14.7C13.1378 15.1 12.5628 15.4167 11.9128 15.65C11.2628 15.8833 10.5711 16 9.83777 16C8.0211 16 6.48377 15.3707 5.22577 14.112C3.96777 12.8533 3.33844 11.316 3.33777 9.5C3.33777 7.68333 3.9671 6.146 5.22577 4.888C6.48444 3.63 8.02177 3.00067 9.83777 3C11.6544 3 13.1921 3.62933 14.4508 4.888C15.7094 6.14667 16.3384 7.684 16.3378 9.5C16.3378 10.2333 16.2211 10.925 15.9878 11.575C15.7544 12.225 15.4378 12.8 15.0378 13.3L21.3378 19.6L19.9378 21ZM9.83777 14C11.0878 14 12.1504 13.5627 13.0258 12.688C13.9011 11.8133 14.3384 10.7507 14.3378 9.5C14.3378 8.25 13.9004 7.18767 13.0258 6.313C12.1511 5.43833 11.0884 5.00067 9.83777 5C8.58777 5 7.52544 5.43767 6.65077 6.313C5.7761 7.18833 5.33844 8.25067 5.33777 9.5C5.33777 10.75 5.77544 11.8127 6.65077 12.688C7.5261 13.5633 8.58844 14.0007 9.83777 14Z"
            fill="black"></path>
    </symbol>
</svg>